<svg xmlns="http://www.w3.org/2000/svg" xmlns:xlink="http://www.w3.org/1999/xlink" width="500" zoomAndPan="magnify" viewBox="0 0 375 374.999991" height="500" preserveAspectRatio="xMidYMid meet" version="1.0"><defs><g/></defs><g fill="#4338ca" fill-opacity="1"><g transform="translate(-2.514858, 279.749982)"><g><path d="M 132.234375 -32.859375 L 62.8125 -32.859375 L 51.671875 0 L 4.234375 0 L 71.546875 -186.03125 L 124.015625 -186.03125 L 191.328125 0 L 143.359375 0 Z M 120.578125 -67.84375 L 97.515625 -135.9375 L 74.734375 -67.84375 Z M 120.578125 -67.84375 "/></g></g></g><g fill="#4338ca" fill-opacity="1"><g transform="translate(192.787964, 279.749982)"><g><path d="M 124.28125 0 L 61.75 -82.15625 L 61.75 0 L 16.4375 0 L 16.4375 -186.03125 L 61.75 -186.03125 L 61.75 -104.40625 L 123.75 -186.03125 L 177.015625 -186.03125 L 104.9375 -94.875 L 179.671875 0 Z M 124.28125 0 "/></g></g></g><g fill="#000000" fill-opacity="1"><g transform="translate(3.316411, 274.274757)"><g><path d="M 132.234375 -32.859375 L 62.8125 -32.859375 L 51.671875 0 L 4.234375 0 L 71.546875 -186.03125 L 124.015625 -186.03125 L 191.328125 0 L 143.359375 0 Z M 120.578125 -67.84375 L 97.515625 -135.9375 L 74.734375 -67.84375 Z M 120.578125 -67.84375 "/></g></g></g></svg>